<?xml version="1.0" encoding="utf-8"?>
<!-- Svg Vector Icons : http://www.onlinewebfonts.com/icon -->
<!DOCTYPE svg PUBLIC "-//W3C//DTD SVG 1.1//EN" "http://www.w3.org/Graphics/SVG/1.1/DTD/svg11.dtd">
<svg version="1.1" xmlns="http://www.w3.org/2000/svg" xmlns:xlink="http://www.w3.org/1999/xlink" x="0px" y="0px" viewBox="0 0 1000 1000" enable-background="new 0 0 1000 1000" xml:space="preserve">
<metadata> Svg Vector Icons : http://www.onlinewebfonts.com/icon </metadata>
<g><path d="M974.2,897.8L576.6,500l397.6-397.6c21.1-21.1,21.1-55.5,0-76.4l0,0C953.1,5,918.7,5,897.8,26L500,423.6L102.4,25.8C81.3,4.7,46.9,4.7,26,25.8C5.2,46.9,5,81.3,26,102.2L423.6,500L25.8,897.8c-21.1,21.1-21.1,55.5,0,76.4l0,0c21.1,21.1,55.5,21.1,76.4,0L500,576.4l397.8,397.8c21.1,21.1,55.5,21.1,76.4,0C995.3,953.1,995.3,918.7,974.2,897.8z"/></g>
</svg>